<svg xmlns="http://www.w3.org/2000/svg"
 xmlns:xlink="http://www.w3.org/1999/xlink"
 width="15px" height="29px"  viewBox="0 0 15 29">
<path fill-rule="evenodd"  fill="#efd0ca"
 d="M9.079346,27.07373 C9.079346,27.07373 9.079346,15.5703125 9.079346,15.5703125 C9.079346,15.5703125 12.560181,15.5703125 12.560181,15.5703125 C12.560181,15.5703125 13.082275,11.085449 13.082275,11.085449 C13.082275,11.085449 9.079346,11.085449 9.079346,11.085449 C9.079346,11.085449 9.079346,8.223145 9.079346,8.223145 C9.079346,6.925293 9.403076,6.0405273 11.083496,6.0405273 C11.083496,6.0405273 13.223267,6.0390625 13.223267,6.0390625 C13.223267,6.0390625 13.223267,2.0283203 13.223267,2.0283203 C12.853516,1.9750977 11.58313,1.8525391 10.104858,1.8525391 C7.017578,1.8525391 4.904297,3.9418945 4.904297,7.7788086 C4.904297,7.7788086 4.904297,11.085449 4.904297,11.085449 C4.904297,11.085449 1.4128418,11.085449 1.4128418,11.085449 C1.4128418,11.085449 1.4128418,15.5703125 1.4128418,15.5703125 C1.4128418,15.5703125 4.904297,15.5703125 4.904297,15.5703125 C4.904297,15.5703125 4.904297,27.07373 4.904297,27.07373 C4.904297,27.07373 9.079346,27.07373 9.079346,27.07373 Z"/>
</svg>