<svg xmlns="http://www.w3.org/2000/svg"
 xmlns:xlink="http://www.w3.org/1999/xlink"
 width="24px" height="23px"  viewBox="0 0 24 23">
<path fill-rule="evenodd"  fill="#efd0ca"
 d="M11.922974,7.4853516 C9.741943,7.4853516 7.9676514,9.270508 7.9676514,11.464355 C7.9676514,13.658691 9.741943,15.444336 11.922974,15.444336 C14.10376,15.444336 15.878418,13.658691 15.878418,11.464355 C15.878418,9.270508 14.10376,7.4853516 11.922974,7.4853516 ZM16.252563,1.0698242 C16.252563,1.0698242 7.5932617,1.0698242 7.5932617,1.0698242 C4.283203,1.0698242 1.590332,3.7788086 1.590332,7.1088867 C1.590332,7.1088867 1.590332,15.8203125 1.590332,15.8203125 C1.590332,19.15039 4.283203,21.859375 7.5932617,21.859375 C7.5932617,21.859375 16.25232,21.859375 16.25232,21.859375 C19.5625,21.859375 22.255493,19.15039 22.255493,15.8203125 C22.255493,15.8203125 22.255493,7.1088867 22.255493,7.1088867 C22.255493,3.7788086 19.5625,1.0698242 16.252563,1.0698242 ZM11.922974,17.06836 C8.851685,17.06836 6.3530273,14.554199 6.3530273,11.464355 C6.3530273,8.375 8.851685,5.861328 11.922974,5.861328 C14.994385,5.861328 17.492798,8.375 17.492798,11.464355 C17.492798,14.554199 14.994385,17.06836 11.922974,17.06836 ZM17.910889,6.633301 C17.138794,6.633301 16.512695,6.003418 16.512695,5.2265625 C16.512695,4.449707 17.138794,3.8198242 17.910889,3.8198242 C18.68335,3.8198242 19.309326,4.449707 19.309326,5.2265625 C19.309326,6.003418 18.68335,6.633301 17.910889,6.633301 Z"/>
</svg>