<svg xmlns="http://www.w3.org/2000/svg"
 xmlns:xlink="http://www.w3.org/1999/xlink"
 width="29px" height="22px"  viewBox="0 0 29 22">
<path fill-rule="evenodd"  fill="#efd0ca"
 d="M27.352173,4.4648438 C27.045898,3.3295898 26.148926,2.4345703 25.011353,2.128418 C22.93335,1.5610352 14.620117,1.5610352 14.620117,1.5610352 C14.620117,1.5610352 6.307495,1.5610352 4.229126,2.1069336 C3.1132812,2.4125977 2.194458,3.3295898 1.8881836,4.4648438 C1.3416748,6.538574 1.3416748,10.839844 1.3416748,10.839844 C1.3416748,10.839844 1.3416748,15.162109 1.8881836,17.214355 C2.1947021,18.350098 3.0914307,19.245117 4.229248,19.550781 C6.3291016,20.118652 14.620361,20.118652 14.620361,20.118652 C14.620361,20.118652 22.93335,20.118652 25.011353,19.572266 C26.148926,19.266602 27.045898,18.371582 27.352295,17.236328 C27.899048,15.162109 27.899048,10.861816 27.899048,10.861816 C27.899048,10.861816 27.920898,6.538574 27.352173,4.4648438 ZM11.973389,14.812988 C11.973389,14.812988 11.973389,6.866211 11.973389,6.866211 C11.973389,6.866211 18.88623,10.839844 18.88623,10.839844 C18.88623,10.839844 11.973389,14.812988 11.973389,14.812988 Z"/>
</svg>